<svg xmlns="http://www.w3.org/2000/svg" width="126" height="34" viewBox="0 0 126 34" shape-rendering="geometricPrecision">
  <defs>
    <filter id="a" width="200%" height="200%" x="-50%" y="-50%" filterUnits="objectBoundingBox">
      <feOffset dy="1" in="SourceAlpha" result="shadowOffsetOuter1"/>
      <feGaussianBlur stdDeviation=".5" in="shadowOffsetOuter1" result="shadowBlurOuter1"/>
      <feColorMatrix values="0 0 0 0 0 0 0 0 0 0 0 0 0 0 0 0 0 0 0.08 0" in="shadowBlurOuter1" result="shadowMatrixOuter1"/>
      <feMerge>
        <feMergeNode in="shadowMatrixOuter1"/>
        <feMergeNode in="SourceGraphic"/>
      </feMerge>
    </filter>
  </defs>
  <g fill="none" fill-rule="evenodd" transform="translate(1)" filter="url(#a)">
    <g fill="#00AFBA">
      <polygon points="5.003 .023 .135 .023 8.248 14.085 10.682 9.87"/>
      <polygon points="24.293 .023 14.648 16.744 12.214 20.935 18.592 31.977 37.025 .023"/>
    </g>
    <g fill="#FFFFFF" transform="translate(45.296 4.282)">
      <polygon points="5.499 9.059 5.499 5.025 1.623 5.025 1.623 9.059 .18 9.059 .18 .023 1.623 .023 1.623 3.808 5.499 3.808 5.499 .023 6.941 .023 6.941 9.059"/>
      <path d="M8.15774648 8.69859155L9.10422535 7.75211268C8.81126761 7.23380282 8.65352113 6.55774648 8.65352113 5.81408451 8.65352113 3.8084507 9.78028169 2.43380282 11.6732394 2.43380282 12.484507 2.43380282 13.1830986 2.72676056 13.6788732 3.2L14.5802817 2.32112676 15.2338028 2.97464789 14.2422535 3.94366197C14.5352113 4.46197183 14.6704225 5.09295775 14.6704225 5.81408451 14.6704225 7.81971831 13.5211268 9.1943662 11.6732394 9.1943662 10.8619718 9.1943662 10.1859155 8.94647887 9.69014085 8.49577465L8.81126761 9.35211268C8.58591549 9.10422535 8.36056338 8.90140845 8.15774648 8.69859155L8.15774648 8.69859155zM10.1408451 6.71549296L12.7549296 4.10140845C12.4619718 3.78591549 12.1014085 3.62816901 11.6056338 3.62816901 10.6140845 3.62816901 9.98309859 4.43943662 9.98309859 5.81408451 10.0056338 6.15211268 10.0507042 6.44507042 10.1408451 6.71549296L10.1408451 6.71549296zM13.1830986 5.0028169L10.5690141 7.5943662C10.8394366 7.88732394 11.2225352 8.02253521 11.6507042 8.02253521 12.6422535 8.02253521 13.2957746 7.23380282 13.2957746 5.81408451 13.2957746 5.52112676 13.2732394 5.22816901 13.1830986 5.0028169L13.1830986 5.0028169zM21.9943662 8.78873239C21.9943662 10.7267606 20.7098592 11.7183099 18.9971831 11.7183099 17.5323944 11.7183099 16.4507042 11.0873239 16.1802817 10.028169L17.5323944 9.64507042C17.6676056 10.1633803 18.2985915 10.5464789 18.9971831 10.5464789 20.0788732 10.5464789 20.5971831 9.82535211 20.5971831 8.78873239L20.5971831 8.29295775C20.3492958 8.76619718 19.5380282 9.17183099 18.771831 9.17183099 17.1492958 9.17183099 15.9098592 7.7971831 15.9098592 5.7915493 15.9098592 3.8084507 17.0816901 2.41126761 18.771831 2.41126761 19.628169 2.41126761 20.371831 2.92957746 20.5971831 3.38028169L20.7323944 2.54647887 21.9943662 2.54647887 21.9943662 8.78873239 21.9943662 8.78873239zM18.9971831 3.62816901C17.9830986 3.62816901 17.3070423 4.41690141 17.3070423 5.81408451 17.3070423 7.23380282 17.9830986 8.02253521 18.9971831 8.02253521 19.9887324 8.02253521 20.5971831 7.23380282 20.5971831 5.81408451 20.5971831 4.3943662 20.0112676 3.62816901 18.9971831 3.62816901L18.9971831 3.62816901zM23.3915493 7.14366197C23.8422535 7.05352113 24.2929577 6.96338028 24.743662 6.89577465 24.8338028 7.41408451 25.1492958 8.02253521 26.1859155 8.02253521 26.4112676 8.02253521 27.5605634 7.93239437 27.5605634 7.12112676 27.5605634 5.56619718 23.5943662 7.16619718 23.5943662 4.3943662 23.5943662 3.29014085 24.6985915 2.45633803 26.0732394 2.45633803 27.4478873 2.45633803 28.6422535 3.04225352 28.8225352 4.48450704 28.371831 4.55211268 27.9211268 4.64225352 27.4704225 4.73239437 27.3802817 3.92112676 26.884507 3.62816901 26.1183099 3.62816901 25.4422535 3.62816901 24.9690141 3.98873239 24.9690141 4.3943662 24.9690141 4.91267606 25.4647887 5.07042254 26.2309859 5.13802817 27.6957746 5.29577465 28.9352113 5.61126761 28.9352113 7.12112676 28.9352113 8.47323944 27.7408451 9.1943662 26.1859155 9.1943662 24.5183099 9.1943662 23.571831 8.31549296 23.3915493 7.14366197L23.3915493 7.14366197zM34.343662 2.56901408L36.2366197 2.56901408 33.4197183 5.22816901C33.8929577 5.83661972 36.0338028 8.47323944 36.5070423 9.05915493L34.8619718 9.05915493 32.4957746 6.12957746 31.8647887 6.73802817 31.8647887 9.05915493 30.4676056 9.05915493 30.4676056.0225352113 31.8647887.0225352113 31.8647887 4.95774648 34.343662 2.56901408 34.343662 2.56901408zM38.6478873 6.10704225C38.6478873 7.43661972 39.0985915 8 40.1126761 8.02253521 41.0816901 8.02253521 41.5549296 7.3915493 41.5549296 6.10704225L41.5549296 2.56901408 42.9295775 2.56901408 42.9295775 9.05915493 41.6901408 9.05915493 41.5549296 8.36056338C41.3295775 8.74366197 40.6535211 9.17183099 39.7746479 9.17183099 37.971831 9.17183099 37.2507042 8.18028169 37.2507042 6.08450704L37.2507042 2.54647887 38.6253521 2.54647887 38.6253521 6.10704225 38.6478873 6.10704225z"/>
      <polygon points="46.22 .023 46.22 9.059 44.845 9.059 44.845 .023"/>
      <path d="M52.4394366 6.8056338C52.8676056 6.91830986 53.2957746 7.05352113 53.7014085 7.18873239 53.4084507 8.13521127 52.5295775 9.1943662 50.7492958 9.1943662 48.9690141 9.1943662 47.7070423 7.81971831 47.7070423 5.81408451 47.7070423 3.8084507 48.8788732 2.43380282 50.7042254 2.43380282 52.5070423 2.43380282 53.6338028 3.62816901 53.6338028 5.61126761 53.6338028 5.81408451 53.6338028 6.01690141 53.6112676 6.21971831L49.171831 6.21971831C49.1943662 7.16619718 49.8478873 8.02253521 50.7943662 8.02253521 51.4253521 8.02253521 52.1014085 7.70704225 52.4394366 6.8056338L52.4394366 6.8056338zM52.1464789 5.18309859C52.1014085 4.21408451 51.6507042 3.6056338 50.7042254 3.6056338 49.7802817 3.6056338 49.2619718 4.37183099 49.2169014 5.18309859L52.1464789 5.18309859 52.1464789 5.18309859zM59.5830986 5.54366197C59.5830986 4.21408451 59.1323944 3.62816901 58.1183099 3.62816901 57.1492958 3.62816901 56.6760563 4.25915493 56.6760563 5.54366197L56.6760563 9.08169014 55.3014085 9.08169014 55.3014085 2.5915493 56.5633803 2.5915493 56.6985915 3.29014085C56.9239437 2.88450704 57.6 2.45633803 58.4112676 2.45633803 60.2816901 2.47887324 60.9802817 3.47042254 60.9802817 5.54366197L60.9802817 9.08169014 59.6056338 9.08169014 59.6056338 5.54366197 59.5830986 5.54366197zM.18028169 16.6760563L1.44225352 16.6760563 1.57746479 17.4873239C1.8028169 17.1267606 2.52394366 16.5408451 3.47042254 16.5408451 5.09295775 16.5408451 6.24225352 17.915493 6.24225352 19.9211268 6.24225352 21.9267606 5.2056338 23.3014085 3.47042254 23.3014085 2.5915493 23.3014085 1.84788732 22.7830986 1.57746479 22.4L1.57746479 25.7126761.18028169 25.7126761.18028169 16.6760563.18028169 16.6760563zM3.17746479 17.7352113C2.16338028 17.7352113 1.57746479 18.5239437 1.57746479 19.9211268 1.57746479 21.3408451 2.16338028 22.1295775 3.17746479 22.1295775 4.16901408 22.1295775 4.82253521 21.3408451 4.82253521 19.9211268 4.82253521 18.5014085 4.1915493 17.7352113 3.17746479 17.7352113L3.17746479 17.7352113zM8.96901408 18.9070423C8.51830986 18.8394366 8.06760563 18.7267606 7.5943662 18.6591549 7.72957746 17.2169014 8.92394366 16.5633803 10.2760563 16.5633803 12.1014085 16.5633803 13.0478873 17.4647887 13.0478873 19.2225352L13.0478873 21.4760563C13.0478873 21.8591549 13.115493 22.084507 13.3859155 22.084507 13.4985915 22.084507 13.656338 22.0619718 13.7239437 22.0394366L13.7239437 23.1661972C13.3183099 23.2788732 13.0704225 23.2788732 12.9126761 23.2788732 12.2366197 23.2788732 11.8760563 22.8732394 11.7859155 22.3549296 11.5380282 22.6704225 10.8394366 23.3014085 9.75774648 23.3239437 8.24788732 23.3239437 7.36901408 22.4901408 7.36901408 21.2507042 7.36901408 20.2366197 8.31549296 19.3126761 10.0056338 19.3126761L11.6732394 19.3126761 11.6732394 18.9295775C11.6732394 18.4338028 11.4704225 17.7577465 10.2760563 17.7577465 9.48732394 17.7352113 8.9915493 18.1183099 8.96901408 18.9070423L8.96901408 18.9070423zM11.6732394 20.6422535L11.6732394 20.3267606 10.1408451 20.3267606C8.9915493 20.3267606 8.76619718 20.9126761 8.76619718 21.228169 8.76619718 21.656338 9.05915493 22.1295775 9.91549296 22.1295775 11.0422535 22.1295775 11.6732394 21.3633803 11.6732394 20.6422535L11.6732394 20.6422535zM10.2985915 13.7464789C10.9746479 13.7464789 11.5380282 14.2873239 11.5380282 14.9408451 11.5380282 15.6169014 10.9971831 16.1577465 10.2985915 16.1577465 9.62253521 16.1577465 9.05915493 15.6394366 9.05915493 14.9408451 9.05915493 14.2873239 9.62253521 13.7464789 10.2985915 13.7464789L10.2985915 13.7464789zM10.2985915 15.5492958C10.6366197 15.5492958 10.9070423 15.2788732 10.9070423 14.9408451 10.9070423 14.6028169 10.6366197 14.3323944 10.2985915 14.3323944 9.96056338 14.3323944 9.69014085 14.6253521 9.69014085 14.9408451 9.66760563 15.2788732 9.96056338 15.5492958 10.2985915 15.5492958L10.2985915 15.5492958z"/>
      <polygon points="21.634 14.13 23.144 14.13 19.876 23.166 18.501 23.166 15.279 14.13 16.766 14.13 19.2 21.07"/>
      <path d="M27.7183099 20.9126761C28.1464789 21.0253521 28.5746479 21.1605634 28.9802817 21.2732394 28.6873239 22.2197183 27.8084507 23.2788732 26.028169 23.2788732 24.2478873 23.2788732 22.9859155 21.9042254 22.9859155 19.8985915 22.9859155 17.8929577 24.1577465 16.5183099 25.9830986 16.5183099 27.7859155 16.5183099 28.9126761 17.7126761 28.9126761 19.6957746 28.9126761 19.8985915 28.9126761 20.1014085 28.8901408 20.3042254L24.4507042 20.3042254C24.4732394 21.2507042 25.1267606 22.1070423 26.0732394 22.1070423 26.7267606 22.1295775 27.3802817 21.8140845 27.7183099 20.9126761L27.7183099 20.9126761zM27.4253521 19.2901408C27.3802817 18.3211268 26.9295775 17.7126761 25.9830986 17.7126761 25.0591549 17.7126761 24.5408451 18.4788732 24.4957746 19.2901408L27.4253521 19.2901408 27.4253521 19.2901408zM30.0619718 21.2507042C30.5126761 21.1605634 30.9633803 21.0704225 31.4140845 21.0028169 31.5042254 21.5211268 31.8197183 22.1295775 32.856338 22.1295775 33.0816901 22.1295775 34.2309859 22.0394366 34.2309859 21.228169 34.2309859 19.6732394 30.2647887 21.2732394 30.2647887 18.5014085 30.2647887 17.3971831 31.3690141 16.5633803 32.743662 16.5633803 34.1183099 16.5633803 35.3126761 17.1492958 35.4929577 18.5915493 35.0422535 18.6591549 34.5915493 18.7492958 34.1408451 18.8394366 34.0507042 18.028169 33.5549296 17.7352113 32.7887324 17.7352113 32.1126761 17.7352113 31.6394366 18.0957746 31.6394366 18.5014085 31.6394366 19.0197183 32.1352113 19.1774648 32.9014085 19.2450704 34.3661972 19.4028169 35.6056338 19.7183099 35.6056338 21.228169 35.6056338 22.5802817 34.4112676 23.3014085 32.856338 23.3014085 31.1887324 23.3014085 30.2422535 22.4225352 30.0619718 21.2507042L30.0619718 21.2507042zM36.4619718 17.7352113L36.4619718 16.6760563 37.5887324 16.6760563 37.5887324 14.8056338 38.9633803 14.8056338 38.9633803 16.6760563 40.315493 16.6760563 40.315493 17.7352113 38.9633803 17.7352113 38.9633803 21.4084507C38.9633803 21.9267606 39.1211268 22.084507 39.571831 22.084507 39.7746479 22.084507 39.9774648 22.0619718 40.1802817 22.0619718L40.1802817 23.1887324 39.3690141 23.2338028 39.2112676 23.2338028C37.9943662 23.2338028 37.5887324 22.5802817 37.5887324 21.3408451L37.5887324 17.7577465 36.4619718 17.7577465 36.4619718 17.7352113z"/>
      <polygon points="43.268 14.13 43.268 23.166 41.893 23.166 41.893 14.13"/>
      <path d="M46.3323944 18.9070423C45.8816901 18.8394366 45.4309859 18.7267606 44.9577465 18.6591549 45.0929577 17.2169014 46.2873239 16.5633803 47.6394366 16.5633803 49.4647887 16.5633803 50.4112676 17.4647887 50.4112676 19.2225352L50.4112676 21.4760563C50.4112676 21.8591549 50.4788732 22.084507 50.7492958 22.084507 50.8619718 22.084507 51.0197183 22.0619718 51.0873239 22.0394366L51.0873239 23.1661972C50.6816901 23.2788732 50.4338028 23.2788732 50.2760563 23.2788732 49.6 23.2788732 49.2394366 22.8732394 49.1492958 22.3549296 48.9014085 22.6704225 48.2028169 23.3014085 47.1211268 23.3239437 45.6112676 23.3239437 44.7323944 22.4901408 44.7323944 21.2507042 44.7323944 20.2366197 45.6788732 19.3126761 47.3690141 19.3126761L49.0366197 19.3126761 49.0366197 18.9295775C49.0366197 18.4338028 48.8338028 17.7577465 47.6394366 17.7577465 46.8507042 17.7352113 46.3549296 18.1183099 46.3323944 18.9070423L46.3323944 18.9070423zM49.0366197 20.6422535L49.0366197 20.3267606 47.5042254 20.3267606C46.3549296 20.3267606 46.1295775 20.9126761 46.1295775 21.228169 46.1295775 21.656338 46.4225352 22.1295775 47.2788732 22.1295775 48.4056338 22.1295775 49.0366197 21.3633803 49.0366197 20.6422535L49.0366197 20.6422535zM56.6535211 19.6507042C56.6535211 18.3211268 56.2028169 17.7352113 55.1887324 17.7352113 54.2197183 17.7352113 53.7464789 18.3661972 53.7464789 19.6507042L53.7464789 23.1887324 52.371831 23.1887324 52.371831 16.6760563 53.6338028 16.6760563 53.7690141 17.3746479C53.9943662 16.9690141 54.6704225 16.5408451 55.4816901 16.5408451 57.3521127 16.5633803 58.0507042 17.5549296 58.0507042 19.628169L58.0507042 23.1661972 56.6760563 23.1661972 56.6760563 19.6507042 56.6535211 19.6507042zM65.5549296 23.1661972L64.2929577 23.1661972 64.1577465 22.3549296C63.9323944 22.715493 63.2112676 23.3014085 62.2873239 23.3014085 60.6647887 23.3014085 59.4704225 21.9267606 59.4704225 19.9211268 59.4704225 17.915493 60.5295775 16.5408451 62.2873239 16.5408451 63.1661972 16.5408451 63.9098592 17.0816901 64.1577465 17.4422535L64.1577465 14.1295775 65.5549296 14.1295775 65.5549296 23.1661972 65.5549296 23.1661972zM62.5577465 22.1295775C63.5492958 22.1295775 64.1577465 21.3408451 64.1577465 19.9211268 64.1577465 18.5014085 63.5492958 17.7352113 62.5577465 17.7352113 61.5661972 17.7352113 60.8901408 18.5239437 60.8901408 19.9211268 60.8901408 21.3408451 61.543662 22.1295775 62.5577465 22.1295775L62.5577465 22.1295775zM71.7971831 20.9126761C72.2253521 21.0253521 72.6535211 21.1605634 73.0591549 21.2732394 72.7661972 22.2197183 71.8873239 23.2788732 70.1070423 23.2788732 68.3267606 23.2788732 67.0647887 21.9042254 67.0647887 19.8985915 67.0647887 17.8929577 68.2366197 16.5183099 70.0619718 16.5183099 71.8647887 16.5183099 72.9915493 17.7126761 72.9915493 19.6957746 72.9915493 19.8985915 72.9915493 20.1014085 72.9690141 20.3042254L68.5295775 20.3042254C68.5521127 21.2507042 69.2056338 22.1070423 70.1521127 22.1070423 70.7830986 22.1295775 71.4591549 21.8140845 71.7971831 20.9126761L71.7971831 20.9126761zM71.4816901 19.2901408C71.4366197 18.3211268 70.9859155 17.7126761 70.0394366 17.7126761 69.115493 17.7126761 68.5971831 18.4788732 68.5521127 19.2901408L71.4816901 19.2901408 71.4816901 19.2901408zM73.8704225 17.7352113L73.8704225 16.6760563 74.9971831 16.6760563 74.9971831 14.8056338 76.371831 14.8056338 76.371831 16.6760563 77.7239437 16.6760563 77.7239437 17.7352113 76.371831 17.7352113 76.371831 21.4084507C76.371831 21.9267606 76.5295775 22.084507 76.9802817 22.084507 77.1830986 22.084507 77.3859155 22.0619718 77.5887324 22.0619718L77.5887324 23.1887324 76.7774648 23.2338028 76.6197183 23.2338028C75.4028169 23.2338028 74.9971831 22.5802817 74.9971831 21.3408451L74.9971831 17.7577465 73.8704225 17.7577465 73.8704225 17.7352113z"/>
    </g>
  </g>
</svg>
