<svg width="39" height="34" xmlns="http://www.w3.org/2000/svg">
 <defs>
  <filter filterUnits="objectBoundingBox" y="-50%" x="-50%" height="200%" width="200%" id="a">
   <feGaussianBlur stdDeviation="0.5"/>
  </filter>
 </defs>
 <g>
  <title>background</title>
  <rect fill="none" id="canvas_background" height="36" width="41" y="-1" x="-1"/>
 </g>
 <g>
  <title>Layer 1</title>
  <g id="svg_1" filter="url(#a)" fill-rule="evenodd" fill="none">
   <g id="svg_2" fill="#00AFBA">
    <polygon id="svg_3" points="6.002999782562256,0.023000001907348633 1.1349999904632568,0.023000001907348633 9.248000144958496,14.085000038146973 11.682000160217285,9.869999885559082 "/>
    <polygon id="svg_4" points="25.292999267578125,0.023000001907348633 15.64799976348877,16.743999481201172 13.21399974822998,20.934999465942383 19.591999053955078,31.976999282836914 38.025001525878906,0.023000001907348633 "/>
   </g>
   <g id="svg_5" fill="#FFFFFF">
    <polygon id="svg_6" points="51.79500150680542,13.341000080108643 51.79500150680542,9.307000160217285 47.91900157928467,9.307000160217285 47.91900157928467,13.341000080108643 46.476001501083374,13.341000080108643 46.476001501083374,4.305000068619847 47.91900157928467,4.305000068619847 47.91900157928467,8.09000015258789 51.79500150680542,8.09000015258789 51.79500150680542,4.305000068619847 53.23700141906738,4.305000068619847 53.23700141906738,13.341000080108643 "/>
    <path id="svg_7" d="m54.453751,12.98059l0.94648,-0.94648c-0.29296,-0.51831 -0.45071,-1.19436 -0.45071,-1.93803c0,-2.00563 1.12676,-3.38028 3.01972,-3.38028c0.81127,0 1.50986,0.29296 2.00563,0.7662l0.90141,-0.87887l0.65352,0.65352l-0.99155,0.96901c0.29296,0.51831 0.42817,1.1493 0.42817,1.87042c0,2.00564 -1.14929,3.38029 -2.99718,3.38029c-0.81127,0 -1.48732,-0.24789 -1.9831,-0.6986l-0.87887,0.85634c-0.22535,-0.24788 -0.45071,-0.4507 -0.65352,-0.65352l0,0zm1.9831,-1.9831l2.61408,-2.61408c-0.29296,-0.31549 -0.65352,-0.47324 -1.1493,-0.47324c-0.99155,0 -1.62253,0.81127 -1.62253,2.18591c0.02253,0.33803 0.0676,0.63099 0.15775,0.90141l0,0zm3.04225,-1.71267l-2.61409,2.59155c0.27043,0.29295 0.65353,0.42817 1.08169,0.42817c0.99155,0 1.64507,-0.78874 1.64507,-2.20846c0,-0.29295 -0.02253,-0.58591 -0.11267,-0.81126l0,0zm8.81127,3.78591c0,1.93803 -1.28451,2.92958 -2.99719,2.92958c-1.46479,0 -2.54648,-0.63099 -2.8169,-1.69014l1.35211,-0.3831c0.13522,0.51831 0.7662,0.90141 1.46479,0.90141c1.08169,0 1.6,-0.72113 1.6,-1.75775l0,-0.49577c-0.24788,0.47324 -1.05915,0.87887 -1.82535,0.87887c-1.62253,0 -2.86197,-1.37465 -2.86197,-3.38028c0,-1.9831 1.17183,-3.38028 2.86197,-3.38028c0.85634,0 1.6,0.51831 1.82535,0.96901l0.13521,-0.8338l1.26198,0l0,6.24225l0,0zm-2.99719,-5.16056c-1.01408,0 -1.69014,0.78873 -1.69014,2.18591c0,1.41972 0.67606,2.20846 1.69014,2.20846c0.99155,0 1.6,-0.78874 1.6,-2.20846c0,-1.41971 -0.58591,-2.18591 -1.6,-2.18591l0,0zm4.39437,3.51549c0.4507,-0.09014 0.90141,-0.18028 1.35211,-0.24789c0.09014,0.51831 0.40564,1.12677 1.44226,1.12677c0.22535,0 1.37464,-0.09015 1.37464,-0.90141c0,-1.55493 -3.96619,0.04507 -3.96619,-2.72676c0,-1.10423 1.10422,-1.93803 2.47887,-1.93803c1.37465,0 2.56901,0.58591 2.7493,2.02817c-0.45071,0.0676 -0.90141,0.15774 -1.35212,0.24788c-0.09014,-0.81126 -0.58591,-1.10422 -1.35211,-1.10422c-0.67606,0 -1.1493,0.36056 -1.1493,0.7662c0,0.51831 0.49578,0.67605 1.26198,0.74366c1.46478,0.15774 2.70422,0.47324 2.70422,1.9831c0,1.35211 -1.19436,2.07324 -2.74929,2.07324c-1.66761,0 -2.61409,-0.87888 -2.79437,-2.05071l0,0zm10.95211,-4.57465l1.89296,0l-2.8169,2.65916c0.47324,0.60845 2.61408,3.24507 3.08732,3.83098l-1.64507,0l-2.3662,-2.92957l-0.63098,0.60845l0,2.32112l-1.39718,0l0,-9.03661l1.39718,0l0,4.93521l2.47887,-2.38874l0,0zm4.30423,3.53803c0,1.32958 0.4507,1.89296 1.46479,1.9155c0.96901,0 1.44225,-0.63099 1.44225,-1.9155l0,-3.53803l1.37465,0l0,6.49014l-1.23944,0l-0.13521,-0.69859c-0.22535,0.3831 -0.90141,0.81127 -1.78028,0.81127c-1.80282,0 -2.52395,-0.99155 -2.52395,-3.08732l0,-3.53803l1.37465,0l0,3.56056l0.02254,0z"/>
    <polygon id="svg_8" points="92.5160026550293,4.305000068619847 92.5160026550293,13.341000080108643 91.1410026550293,13.341000080108643 91.1410026550293,4.305000068619847 "/>
    <path id="svg_9" d="m98.735441,11.08763c0.42817,0.11268 0.85633,0.24789 1.26197,0.3831c-0.29296,0.94648 -1.17183,2.00564 -2.95211,2.00564c-1.78029,0 -3.04226,-1.37465 -3.04226,-3.38029c0,-2.00563 1.17183,-3.38028 2.99719,-3.38028c1.80281,0 2.92957,1.19437 2.92957,3.17747c0,0.20281 0,0.40563 -0.02253,0.60845l-4.43944,0c0.02254,0.94648 0.67606,1.80282 1.62254,1.80282c0.63098,0 1.30704,-0.3155 1.64507,-1.21691l0,0zm-0.29296,-1.62253c-0.04507,-0.96902 -0.49578,-1.57747 -1.44225,-1.57747c-0.92395,0 -1.44226,0.7662 -1.48733,1.57747l2.92958,0l0,0zm7.43662,0.36056c0,-1.32958 -0.45071,-1.91549 -1.46479,-1.91549c-0.96901,0 -1.44225,0.63098 -1.44225,1.91549l0,3.53803l-1.37465,0l0,-6.49014l1.26197,0l0.13521,0.69859c0.22535,-0.40563 0.90141,-0.8338 1.71268,-0.8338c1.87042,0.02253 2.56901,1.01408 2.56901,3.08732l0,3.53803l-1.37465,0l0,-3.53803l-0.02253,0zm-59.40282,11.1324l1.26197,0l0.13521,0.81126c0.22536,-0.36056 0.94648,-0.94647 1.89296,-0.94647c1.62254,0 2.77183,1.37464 2.77183,3.38028c0,2.00563 -1.03662,3.38028 -2.77183,3.38028c-0.87887,0 -1.62253,-0.51831 -1.89296,-0.90141l0,3.31268l-1.39718,0l0,-9.03662l0,0zm2.99718,1.05915c-1.01408,0 -1.6,0.78873 -1.6,2.18592c0,1.41972 0.58592,2.20845 1.6,2.20845c0.99155,0 1.64508,-0.78873 1.64508,-2.20845c0,-1.41972 -0.63099,-2.18592 -1.64508,-2.18592l0,0zm5.79155,1.17183c-0.4507,-0.0676 -0.9014,-0.18028 -1.37464,-0.24789c0.13521,-1.44225 1.32957,-2.09577 2.68169,-2.09577c1.82535,0 2.77183,0.90141 2.77183,2.65916l0,2.25352c0,0.38309 0.0676,0.60845 0.33803,0.60845c0.11267,0 0.27042,-0.02254 0.33802,-0.04507l0,1.12676c-0.40563,0.11267 -0.65352,0.11267 -0.81126,0.11267c-0.67606,0 -1.03662,-0.40563 -1.12676,-0.92394c-0.24789,0.31549 -0.94648,0.94648 -2.02817,0.96901c-1.50986,0 -2.38874,-0.8338 -2.38874,-2.07324c0,-1.01408 0.94648,-1.93802 2.63662,-1.93802l1.66761,0l0,-0.3831c0,-0.49578 -0.20282,-1.17183 -1.39718,-1.17183c-0.78874,-0.02254 -1.28451,0.36056 -1.30705,1.14929l0,0zm2.70423,1.73521l0,-0.31549l-1.53239,0c-1.1493,0 -1.37465,0.58592 -1.37465,0.90141c0,0.42817 0.29295,0.90141 1.14929,0.90141c1.12676,0 1.75775,-0.7662 1.75775,-1.48733l0,0zm-1.37465,-6.89577c0.67606,0 1.23944,0.54084 1.23944,1.19437c0,0.67605 -0.54085,1.2169 -1.23944,1.2169c-0.67605,0 -1.23944,-0.51831 -1.23944,-1.2169c0,-0.65353 0.56339,-1.19437 1.23944,-1.19437l0,0zm0,1.80282c0.33803,0 0.60845,-0.27043 0.60845,-0.60845c0,-0.33803 -0.27042,-0.60846 -0.60845,-0.60846c-0.33803,0 -0.60845,0.29296 -0.60845,0.60846c-0.02253,0.33802 0.27042,0.60845 0.60845,0.60845l0,0z"/>
    <polygon id="svg_10" points="67.93000221252441,18.41200017929077 69.44000053405762,18.41200017929077 66.17200088500977,27.44800043106079 64.79700088500977,27.44800043106079 61.575002670288086,18.41200017929077 63.062002182006836,18.41200017929077 65.49600219726562,25.351999759674072 "/>
    <path id="svg_11" d="m74.014311,25.19468c0.42817,0.11267 0.85634,0.24788 1.26197,0.36056c-0.29296,0.94648 -1.17183,2.00563 -2.95211,2.00563c-1.78028,0 -3.04225,-1.37464 -3.04225,-3.38028c0,-2.00563 1.17183,-3.38028 2.99718,-3.38028c1.80282,0 2.92958,1.19437 2.92958,3.17746c0,0.20282 0,0.40564 -0.02254,0.60846l-4.43944,0c0.02254,0.94647 0.67606,1.80281 1.62254,1.80281c0.65352,0.02254 1.30704,-0.29296 1.64507,-1.19436l0,0zm-0.29296,-1.62254c-0.04507,-0.96901 -0.49577,-1.57746 -1.44225,-1.57746c-0.92395,0 -1.44225,0.76619 -1.48733,1.57746l2.92958,0l0,0zm2.63662,1.96056c0.45071,-0.09014 0.90141,-0.18028 1.35211,-0.24788c0.09015,0.51831 0.40564,1.12676 1.44226,1.12676c0.22535,0 1.37465,-0.09014 1.37465,-0.90141c0,-1.55493 -3.9662,0.04507 -3.9662,-2.72676c0,-1.10423 1.10422,-1.93803 2.47887,-1.93803c1.37465,0 2.56902,0.58592 2.7493,2.02817c-0.45071,0.0676 -0.90141,0.15775 -1.35211,0.24789c-0.09015,-0.81127 -0.58592,-1.10423 -1.35212,-1.10423c-0.67605,0 -1.14929,0.36056 -1.14929,0.7662c0,0.51831 0.49577,0.67605 1.26197,0.74366c1.46479,0.15775 2.70422,0.47324 2.70422,1.9831c0,1.35211 -1.19436,2.07324 -2.74929,2.07324c-1.66761,0 -2.61409,-0.87887 -2.79437,-2.05071l0,0zm6.4,-3.51549l0,-1.05915l1.12676,0l0,-1.87043l1.37465,0l0,1.87043l1.35211,0l0,1.05915l-1.35211,0l0,3.67324c0,0.51831 0.15775,0.67606 0.60845,0.67606c0.20282,0 0.40563,-0.02254 0.60845,-0.02254l0,1.12676l-0.81127,0.04507l-0.15774,0c-1.2169,0 -1.62254,-0.65352 -1.62254,-1.89295l0,-3.5831l-1.12676,0l0,-0.02254z"/>
    <polygon id="svg_12" points="89.56400299072266,18.41200017929077 89.56400299072266,27.44800043106079 88.18900299072266,27.44800043106079 88.18900299072266,18.41200017929077 "/>
    <path id="svg_13" d="m92.628391,23.18904c-0.4507,-0.0676 -0.9014,-0.18028 -1.37464,-0.24789c0.13521,-1.44225 1.32957,-2.09577 2.68169,-2.09577c1.82535,0 2.77183,0.90141 2.77183,2.65916l0,2.25352c0,0.38309 0.0676,0.60845 0.33803,0.60845c0.11267,0 0.27042,-0.02254 0.33802,-0.04507l0,1.12676c-0.40563,0.11267 -0.65352,0.11267 -0.81126,0.11267c-0.67606,0 -1.03662,-0.40563 -1.12676,-0.92394c-0.24789,0.31549 -0.94648,0.94648 -2.02817,0.96901c-1.50986,0 -2.38874,-0.8338 -2.38874,-2.07324c0,-1.01408 0.94648,-1.93802 2.63662,-1.93802l1.66761,0l0,-0.3831c0,-0.49578 -0.20282,-1.17183 -1.39718,-1.17183c-0.78874,-0.02254 -1.28451,0.36056 -1.30705,1.14929l0,0zm2.70423,1.73521l0,-0.31549l-1.53239,0c-1.1493,0 -1.37465,0.58592 -1.37465,0.90141c0,0.42817 0.29296,0.90141 1.14929,0.90141c1.12676,0 1.75775,-0.7662 1.75775,-1.48733l0,0zm7.6169,-0.99155c0,-1.32957 -0.4507,-1.91549 -1.46479,-1.91549c-0.96901,0 -1.44225,0.63099 -1.44225,1.91549l0,3.53803l-1.37465,0l0,-6.51267l1.26197,0l0.13521,0.69859c0.22536,-0.40564 0.90141,-0.8338 1.71268,-0.8338c1.87042,0.02253 2.56901,1.01408 2.56901,3.08732l0,3.53803l-1.37464,0l0,-3.5155l-0.02254,0zm8.90141,3.5155l-1.26197,0l-0.13521,-0.81127c-0.22536,0.36056 -0.94648,0.94648 -1.87043,0.94648c-1.62253,0 -2.8169,-1.37465 -2.8169,-3.38028c0,-2.00564 1.05916,-3.38028 2.8169,-3.38028c0.87888,0 1.62254,0.54084 1.87043,0.9014l0,-3.31267l1.39718,0l0,9.03662l0,0zm-2.99718,-1.03662c0.99155,0 1.6,-0.78873 1.6,-2.20845c0,-1.41972 -0.60845,-2.18592 -1.6,-2.18592c-0.99155,0 -1.66761,0.78873 -1.66761,2.18592c0,1.41972 0.65352,2.20845 1.66761,2.20845l0,0zm9.23943,-1.2169c0.42817,0.11267 0.85634,0.24788 1.26197,0.36056c-0.29295,0.94648 -1.17183,2.00563 -2.95211,2.00563c-1.78028,0 -3.04225,-1.37464 -3.04225,-3.38028c0,-2.00563 1.17183,-3.38028 2.99718,-3.38028c1.80282,0 2.92958,1.19437 2.92958,3.17746c0,0.20282 0,0.40564 -0.02254,0.60846l-4.43943,0c0.02253,0.94647 0.67605,1.80281 1.62253,1.80281c0.63099,0.02254 1.30704,-0.29296 1.64507,-1.19436l0,0zm-0.31549,-1.62254c-0.04507,-0.96901 -0.49577,-1.57746 -1.44225,-1.57746c-0.92395,0 -1.44226,0.76619 -1.48733,1.57746l2.92958,0l0,0zm2.38873,-1.55493l0,-1.05915l1.12676,0l0,-1.87043l1.37465,0l0,1.87043l1.35211,0l0,1.05915l-1.35211,0l0,3.67324c0,0.51831 0.15775,0.67606 0.60845,0.67606c0.20282,0 0.40564,-0.02254 0.60845,-0.02254l0,1.12676l-0.81127,0.04507l-0.15774,0c-1.2169,0 -1.62254,-0.65352 -1.62254,-1.89295l0,-3.5831l-1.12676,0l0,-0.02254z"/>
   </g>
  </g>
 </g>
</svg>